<?xml version="1.0" encoding="iso-8859-1"?>
<!-- Generator: Adobe Illustrator 18.0.0, SVG Export Plug-In . SVG Version: 6.00 Build 0)  -->
<!DOCTYPE svg PUBLIC "-//W3C//DTD SVG 1.1//EN" "http://www.w3.org/Graphics/SVG/1.1/DTD/svg11.dtd">
<svg version="1.1" id="Capa_1" xmlns="http://www.w3.org/2000/svg" xmlns:xlink="http://www.w3.org/1999/xlink" x="0px" y="0px"
	 viewBox="0 0 423.708 423.708" style="enable-background:new 0 0 423.708 423.708;" xml:space="preserve">
<g>
	<path style="fill:#FCE7A7;" d="M242.246,369.803v23.512c0,5.138-1.262,9.978-3.532,14.222
		c-5.092,9.611-15.208,16.172-26.861,16.172c-11.653,0-21.768-6.56-26.861-16.172c-2.271-4.243-3.532-9.083-3.532-14.222v-23.512
		H242.246z"/>
	<g>
		<path style="fill:#E5CF98;" d="M139.025,259.509c0,23.236-18.855,42.091-42.091,42.091c-7.455,0-14.451-1.95-20.507-5.344
			c-12.868-7.18-21.585-20.966-21.585-36.747c0-13.763,6.606-25.989,16.86-33.673c7.019-5.276,15.759-8.419,25.232-8.419
			C120.17,217.417,139.025,236.273,139.025,259.509z"/>
		<path style="fill:#E5CF98;" d="M368.866,259.509c0,23.236-18.855,42.091-42.092,42.091c-1.72,0-3.418-0.115-5.092-0.321
			c-20.828-2.5-36.999-20.254-36.999-41.77c0-23.236,18.855-42.092,42.091-42.092c0.39,0,0.757,0,1.124,0.023
			C350.63,218.037,368.866,236.663,368.866,259.509z"/>
	</g>
	<path style="fill:#E5CF98;" d="M242.246,369.803v23.512c0,5.138-1.262,9.978-3.532,14.222c-8.648,1.858-17.639,2.821-26.861,2.821
		c-9.221,0-18.213-0.963-26.861-2.821c-2.271-4.243-3.532-9.083-3.532-14.222v-23.512H242.246z"/>
	<path style="fill:#FCE7A7;" d="M339.966,220.547v43.35c0,70.75-57.36,128.11-128.11,128.11c-70.76,0-128.11-57.36-128.11-128.11
		v-43.35c0-6.43,0.47-12.74,1.39-18.91c3.41-23.06,12.96-44.12,26.95-61.45c23.47-29.12,59.44-47.75,99.77-47.75
		c35.38,0,67.4,14.34,90.59,37.52c3.24,3.24,6.31,6.66,9.19,10.23c13.98,17.34,23.53,38.39,26.94,61.45
		C339.496,207.807,339.966,214.117,339.966,220.547z"/>
	<g>
		<path style="fill:#FFFFFF;" d="M149.055,270.156c-11.21,0-20.33-9.12-20.33-20.33s9.12-20.33,20.33-20.33s20.33,9.12,20.33,20.33
			S160.265,270.156,149.055,270.156z"/>
		<path style="fill:#FFFFFF;" d="M274.65,270.156c-11.21,0-20.33-9.12-20.33-20.33s9.12-20.33,20.33-20.33
			c11.21,0,20.33,9.12,20.33,20.33S285.86,270.156,274.65,270.156z"/>
		<path style="fill:#EA535E;" d="M156.013,249.826c-3.843,0-6.958-3.115-6.958-6.958c0-2.401,1.216-4.518,3.066-5.768
			c-0.985-0.237-2.009-0.376-3.066-0.376c-7.236,0-13.102,5.866-13.102,13.102c0,7.236,5.866,13.102,13.102,13.102
			s13.102-5.866,13.102-13.102c0-1.058-0.139-2.081-0.376-3.067C160.531,248.609,158.414,249.826,156.013,249.826z"/>
		<path style="fill:#EA535E;" d="M281.607,249.826c-3.843,0-6.958-3.115-6.958-6.958c0-2.401,1.216-4.518,3.066-5.768
			c-0.985-0.237-2.009-0.376-3.066-0.376c-7.236,0-13.102,5.866-13.102,13.102c0,7.236,5.866,13.102,13.102,13.102
			s13.102-5.866,13.102-13.102c0-1.058-0.139-2.081-0.376-3.067C286.125,248.609,284.008,249.826,281.607,249.826z"/>
	</g>
	<polygon style="fill:#E5CF98;" points="194.362,270.471 211.853,254.628 229.343,270.471 	"/>
	<path style="fill:#EA535E;" d="M240.618,300.122c-3.317,0-6.638-0.698-9.757-2.099c-13.135-5.896-28.198-5.896-41.331,0
		c-6.545,2.939-13.982,2.786-20.402-0.425c-1.482-0.741-2.083-2.542-1.342-4.024c0.741-1.481,2.543-2.083,4.024-1.342
		c4.802,2.399,10.364,2.516,15.262,0.317c14.696-6.598,31.551-6.598,46.246,0c4.898,2.199,10.461,2.083,15.262-0.317
		c1.481-0.74,3.283-0.141,4.025,1.341c0.74,1.482,0.14,3.284-1.342,4.025C247.903,299.279,244.262,300.122,240.618,300.122z"/>
	<path style="fill:#E5CF98;" d="M339.966,220.547v16c0,0-15.68-70.88-128.11-70.88c-112.44,0-128.11,70.88-128.11,70.88v-16
		c0-6.43,0.47-12.74,1.39-18.91c3.41-23.06,12.96-44.12,26.95-61.45c23.54-11.92,56.77-23.32,99.77-23.32s76.24,11.41,99.78,23.32
		c13.98,17.34,23.53,38.39,26.94,61.45C339.496,207.807,339.966,214.117,339.966,220.547z"/>
	<path style="fill:#EA535E;" d="M327.686,145.347H96.016c0,0,8.16-10.79,16.2-25.23c8.88-15.95,17.6-36.36,14.98-51.58
		c-5-29-29-62,12-68c38.34-5.61,145.75,32.5,182.01,124.8C323.726,131.747,325.906,138.417,327.686,145.347z"/>
	<g>
		<path style="fill:#B3B3B3;" d="M115.808,227.537c0,0,26-12,48-10s21-19,7-22S121.808,211.537,115.808,227.537z"/>
		<path style="fill:#B3B3B3;" d="M307.903,227.537c0,0-26-12-48-10s-21-19-7-22S301.903,211.537,307.903,227.537z"/>
	</g>
	<path style="fill:#CCCCCC;" d="M339.966,236.547v-16c0-6.43-0.47-12.74-1.39-18.91h-9.19c0,0-1.73,2.74-4.32,7.16
		c-11.11,18.88-38.14,68.51-14.56,66.74c0,0-47,52-32,58c0,0-60.65-11-66.65,6c-6-17-66.66-6-66.66-6c15-6-32-58-32-58
		c23.58,1.77-3.44-47.84-14.55-66.73c-2.6-4.43-4.33-7.17-4.33-7.17h-9.18c-0.92,6.17-1.39,12.48-1.39,18.91v16
		c0,0-11.229,94.068,10.86,79.029l0,0c0.002,0.007,28.682,78.893,43.635,53.177l0,0c38.763,44.995,108.465,44.995,147.228,0l0,0
		c14.954,25.717,43.636-53.177,43.636-53.177C351.195,330.616,339.966,236.547,339.966,236.547z"/>
	<path style="fill:#999999;" d="M94.316,201.637c0,0,1.73,2.74,4.33,7.17c-12.04,14.81-14.9,27.74-14.9,27.74v-16
		c0-6.43,0.47-12.74,1.39-18.91H94.316z"/>
	<path style="fill:#999999;" d="M339.966,220.547v16c0,0-2.86-12.93-14.9-27.75c2.59-4.42,4.32-7.16,4.32-7.16h9.19
		C339.496,207.807,339.966,214.117,339.966,220.547z"/>
	<path style="fill:#D14253;" d="M327.686,145.347H96.016c0,0,8.16-10.79,16.2-25.23c23.53-11.89,56.72-23.25,99.64-23.25
		c49.19,0,85.62,14.93,109.35,28.47C323.726,131.747,325.906,138.417,327.686,145.347z"/>
	<path style="fill:#EA535E;" d="M211.853,104.87c53.915,0,92.492,17.928,115.835,32.305c14.438,8.892,22.154,27.721,19.066,46.364
		l-6.792,41.006c0,0-15.674-70.879-128.11-70.879s-128.11,70.879-128.11,70.879l-6.792-41.006
		c-3.088-18.643,4.628-37.472,19.067-46.364C119.361,122.799,157.937,104.87,211.853,104.87z"/>
</g>
<g>
</g>
<g>
</g>
<g>
</g>
<g>
</g>
<g>
</g>
<g>
</g>
<g>
</g>
<g>
</g>
<g>
</g>
<g>
</g>
<g>
</g>
<g>
</g>
<g>
</g>
<g>
</g>
<g>
</g>
</svg>
